{"title":"Were the Millers 2013 BRRip 720p x264 AAC - PRiSTiNE [P2PDL]","uid":9133736,"size":742471698,"categoryP":"video","categoryS":"hd___movies","magnet":"?xt=urn:btih:9b0bec01272355daef0f71dc8ef1e8aef112737d&amp;dn=Were+the+Millers+2013+BRRip+720p+x264+AAC+-+PRiSTiNE+%5BP2PDL%5D&amp;tr=udp%3A%2F%2Ftracker.openbittorrent.com%3A80&amp;tr=udp%3A%2F%2Fopen.demonii.com%3A1337&amp;tr=udp%3A%2F%2Ftracker.coppersurfer.tk%3A6969&amp;tr=udp%3A%2F%2Fexodus.desync.com%3A6969","seeders":2,"leechers":2,"uploader":"ValidusVyto","files":-1,"time":1383374540,"description":"_______ Visit us at our Semi Public Bittorrent Community ________\n  &lt;a href=&quot;\nhttp://p2pdl.com&quot; rel=&quot;nofollow&quot; target=&quot;_NEW&quot;&gt;\nhttp://p2pdl.com&lt;/a&gt;  _____________________________ &lt;a href=&quot; http://p2pdl.com&quot; rel=&quot;nofollow&quot; target=&quot;_NEW&quot;&gt; http://p2pdl.com&lt;/a&gt;\n\n\n\nWere the Millers 2013 BRRip 720p x264 AAC - PRiSTiNE\n\n\nGenre: Comedy | Crime\nPlot: A veteran pot dealer creates a fake family as part of his plan to move a huge\nshipment of weed into the U.S. from Mexico.\nDirector: Rawson Marshall Thurber\nStars: Jason Sudeikis, Jennifer Aniston, Emma Roberts\nRated: Rated R for crude sexual content, pervasive language, \ndrug material and brief graphic nudity.\n\nIMDb: &lt;a href=&quot;\nhttp://www.imdb.com/title/tt1723121/&quot; rel=&quot;nofollow&quot; target=&quot;_NEW&quot;&gt;\nhttp://www.imdb.com/title/tt1723121/&lt;/a&gt;\n\n\nFormat                         : MPEG-4\nFile size                      : 696 MiB\nDuration                       : 1h 58mn\nOverall bit rate               : 819 Kbps\n\nVideo\nFormat                         : AVC\nBit rate                       : 737 Kbps\nWidth                          : 1 280 pixels\nHeight                         : 536 pixels\nDisplay aspect ratio           : 2.40:1\nFrame rate mode                : Constant\nFrame rate                     : 23.976 fps\nBit depth                      : 10 bits\nStream size                    : 625 MiB (90%)\nWriting library                : x264 core 138 r2358\n\nAudio\nFormat                         : AAC\nBit rate mode                  : Variable\nBit rate                       : 80.0 Kbps\nChannel count                  : 2 channels\nChannel positions              : Front: L R\nSampling rate                  : 48.0 KHz\nStream size                    : 68.0 MiB (10%)\nLanguage                       : English\n\nSubtitle                       : Yes (English)\n\nSource                         : EXTENDED.720p.BluRay.x264-SPARKS\n &lt;a href=&quot;\nhttp://someimage.com/IPPw1qp&quot; rel=&quot;nofollow&quot; target=&quot;_NEW&quot;&gt;\nhttp://someimage.com/IPPw1qp&lt;/a&gt; &lt;a href=&quot;\nhttp://someimage.com/mSsz4gx&quot; rel=&quot;nofollow&quot; target=&quot;_NEW&quot;&gt;\nhttp://someimage.com/mSsz4gx&lt;/a&gt; &lt;a href=&quot;\nhttp://someimage.com/C9ptygT&quot; rel=&quot;nofollow&quot; target=&quot;_NEW&quot;&gt;\nhttp://someimage.com/C9ptygT&lt;/a&gt; &lt;a href=&quot;\nhttp://someimage.com/yobdgRB&quot; rel=&quot;nofollow&quot; target=&quot;_NEW&quot;&gt;\nhttp://someimage.com/yobdgRB&lt;/a&gt; &lt;a href=&quot;\nhttp://someimage.com/jY6SDLe&quot; rel=&quot;nofollow&quot; target=&quot;_NEW&quot;&gt;\nhttp://someimage.com/jY6SDLe&lt;/a&gt; &lt;a href=&quot;\nhttp://someimage.com/v1tHKM7&quot; rel=&quot;nofollow&quot; target=&quot;_NEW&quot;&gt;\nhttp://someimage.com/v1tHKM7&lt;/a&gt; &lt;a href=&quot;\nhttp://someimage.com/FTu8TKr&quot; rel=&quot;nofollow&quot; target=&quot;_NEW&quot;&gt;\nhttp://someimage.com/FTu8TKr&lt;/a&gt; &lt;a href=&quot;\nhttp://someimage.com/hQbG5cJ&quot; rel=&quot;nofollow&quot; target=&quot;_NEW&quot;&gt;\nhttp://someimage.com/hQbG5cJ&lt;/a&gt; &lt;a href=&quot;\nhttp://someimage.com/cTbmH74&quot; rel=&quot;nofollow&quot; target=&quot;_NEW&quot;&gt;\nhttp://someimage.com/cTbmH74&lt;/a&gt; &lt;a href=&quot;\nhttp://someimage.com/bI8wAs4&quot; rel=&quot;nofollow&quot; target=&quot;_NEW&quot;&gt;\nhttp://someimage.com/bI8wAs4&lt;/a&gt;\n\n----------------------------------------------------------------------------------------------------\n\n\nEncoded using revolutionary 10bit encoding, which enables us to provide you more crispier \nand sharper images at small sizes, just make sure you follow our instructions without a fault.\nRecommend to you to use latest version of VLC player. Install K-Lite Codec Pack or shark007 codecs\nin case of any kind of problem in playback (For non-VLC Media Player users). Alternatively, install\nCore AVC codecs, the fastest decoder that there is coupled with Community Center Codec Pack and play\non Windows Media Player Classic. Check sample to be sure.\nEnjoy!\n\nEncoder Notes:Looking For Early Access To Anything You Can Provide DVDScr, R5, DVDR, BluRay, Direct\nAudio, Music Releases and Seedboxes. We require dedicated servers, so as to do more \nand fast releases of movies.\nIf You Got anything to offer please contact us at &quot;&lt;a class=&quot;__cf_email__&quot; href=&quot;/cdn-cgi/l/email-protection&quot; data-cfemail=&quot;a1d1d3c6e1c9d4d2c98fc2cecc&quot;&gt;[email&amp;#160;protected]&lt;/a&gt;&lt;script cf-hash='f9e31' type=&quot;text/javascript&quot;&gt;\n/* &lt;![CDATA[ */!function(){try{var t=&quot;currentScript&quot;in document?document.currentScript:function(){for(var t=document.getElementsByTagName(&quot;script&quot;),e=t.length;e--;)if(t[e].getAttribute(&quot;cf-hash&quot;))return t[e]}();if(t&amp;&amp;t.previousSibling){var e,r,n,i,c=t.previousSibling,a=c.getAttribute(&quot;data-cfemail&quot;);if(a){for(e=&quot;&quot;,r=parseInt(a.substr(0,2),16),n=2;a.length-n;n+=2)i=parseInt(a.substr(n,2),16)^r,e+=String.fromCharCode(i);e=document.createTextNode(e),c.parentNode.replaceChild(e,c)}}}catch(u){}}();/* ]]&gt; */&lt;/script&gt;&quot;.\n\nFor more of our team uploads visit @                                             &lt;a href=&quot; http://thepiratebay.se/user/vitamin_x&quot; rel=&quot;nofollow&quot; target=&quot;_NEW&quot;&gt; http://thepiratebay.se/user/vitamin_x&lt;/a&gt;\t","torrent":{"xt":"urn:btih:9b0bec01272355daef0f71dc8ef1e8aef112737d","amp;dn":"Were+the+Millers+2013+BRRip+720p+x264+AAC+-+PRiSTiNE+%5BP2PDL%5D","amp;tr":["udp%3A%2F%2Ftracker.openbittorrent.com%3A80","udp%3A%2F%2Fopen.demonii.com%3A1337","udp%3A%2F%2Ftracker.coppersurfer.tk%3A6969","udp%3A%2F%2Fexodus.desync.com%3A6969"],"infoHash":"9b0bec01272355daef0f71dc8ef1e8aef112737d","infoHashBuffer":{"type":"Buffer","data":[155,11,236,1,39,35,85,218,239,15,113,220,142,241,232,174,241,18,115,125]},"announce":[],"urlList":[]}}